<svg xmlns="http://www.w3.org/2000/svg" width="1280" height="520" viewBox="0 0 1280 520" role="img" aria-labelledby="title desc">
  <title id="title">KORA control layer architecture</title>
  <desc id="desc">A technical architecture diagram showing AI Request to KORA Control Layer to Output, with conditional model escalation and telemetry observing the full path.</desc>
  <defs>
    <filter id="shadow" x="-12%" y="-18%" width="124%" height="136%">
      <feDropShadow dx="0" dy="10" stdDeviation="12" flood-color="#020617" flood-opacity="0.35"/>
    </filter>
    <marker id="arrowCyan" markerWidth="12" markerHeight="12" refX="10" refY="6" orient="auto">
      <path d="M2 2 L10 6 L2 10 Z" fill="#22d3ee"/>
    </marker>
    <marker id="arrowAmber" markerWidth="12" markerHeight="12" refX="10" refY="6" orient="auto">
      <path d="M2 2 L10 6 L2 10 Z" fill="#f59e0b"/>
    </marker>
  </defs>
  <rect width="1280" height="520" fill="#08111f"/>
  <text x="64" y="66" fill="#e6f6ff" font-family="Inter, Arial, sans-serif" font-size="34" font-weight="800">KORA Control Layer Architecture</text>
  <text x="64" y="100" fill="#8bdcf8" font-family="Inter, Arial, sans-serif" font-size="17">KORA sits between the request and inference. Model escalation is conditional, not default.</text>
  <g filter="url(#shadow)">
    <rect x="70" y="220" width="160" height="96" rx="12" fill="#0f1f33" stroke="#22d3ee" stroke-width="2"/>
    <rect x="340" y="140" width="560" height="256" rx="16" fill="#0c1a2b" stroke="#22d3ee" stroke-width="2.5"/>
    <rect x="1050" y="220" width="160" height="96" rx="12" fill="#0f1f33" stroke="#22d3ee" stroke-width="2"/>
    <rect x="548" y="430" width="160" height="58" rx="10" fill="#0f1f33" stroke="#64748b" stroke-width="2"/>
    <rect x="745" y="44" width="190" height="66" rx="10" fill="#2a1805" stroke="#f59e0b" stroke-width="2"/>
  </g>
  <g fill="none" stroke-linecap="round" stroke-linejoin="round">
    <path d="M230 268 H340" stroke="#22d3ee" stroke-width="5" marker-end="url(#arrowCyan)"/>
    <path d="M900 268 H1050" stroke="#22d3ee" stroke-width="5" marker-end="url(#arrowCyan)"/>
    <path d="M800 140 C820 112 838 95 745 82" stroke="#f59e0b" stroke-width="4" marker-end="url(#arrowAmber)"/>
    <path d="M806 110 C868 132 900 170 870 220" stroke="#f59e0b" stroke-width="3" stroke-dasharray="8 8"/>
    <path d="M420 396 C455 430 500 452 548 459" stroke="#64748b" stroke-width="3"/>
    <path d="M820 396 C785 430 755 452 708 459" stroke="#64748b" stroke-width="3"/>
  </g>
  <g font-family="Inter, Arial, sans-serif" text-anchor="middle">
    <text x="150" y="258" fill="#e6f6ff" font-size="19" font-weight="800">AI</text>
    <text x="150" y="284" fill="#e6f6ff" font-size="19" font-weight="800">Request</text>
    <text x="1130" y="258" fill="#e6f6ff" font-size="19" font-weight="800">Output</text>
    <text x="1130" y="286" fill="#9fb6c9" font-size="13">validated result</text>
    <text x="620" y="178" fill="#e6f6ff" font-size="24" font-weight="800">KORA Control Layer</text>
    <text x="620" y="205" fill="#8bdcf8" font-size="14">structure first, inference second</text>
    <text x="840" y="72" fill="#fff7ed" font-size="16" font-weight="800">Model Escalation</text>
    <text x="840" y="94" fill="#fed7aa" font-size="12">conditional path</text>
    <text x="628" y="466" fill="#cbd5e1" font-size="15" font-weight="800">Telemetry</text>
  </g>
  <g font-family="Inter, Arial, sans-serif" text-anchor="middle" filter="url(#shadow)">
    <rect x="380" y="240" width="130" height="82" rx="8" fill="#10263a" stroke="#1f9fc1"/>
    <rect x="535" y="240" width="130" height="82" rx="8" fill="#10263a" stroke="#1f9fc1"/>
    <rect x="690" y="240" width="130" height="82" rx="8" fill="#10263a" stroke="#1f9fc1"/>
  </g>
  <g font-family="Inter, Arial, sans-serif" text-anchor="middle">
    <text x="445" y="272" fill="#e6f6ff" font-size="15" font-weight="800">Task</text>
    <text x="445" y="294" fill="#e6f6ff" font-size="15" font-weight="800">Graph</text>
    <text x="600" y="266" fill="#e6f6ff" font-size="15" font-weight="800">Deterministic</text>
    <text x="600" y="288" fill="#e6f6ff" font-size="15" font-weight="800">Handlers</text>
    <text x="755" y="272" fill="#e6f6ff" font-size="15" font-weight="800">Validation</text>
    <text x="755" y="294" fill="#9fb6c9" font-size="12">before escalation</text>
  </g>
  <g fill="none" stroke="#22d3ee" stroke-width="3" stroke-linecap="round" marker-end="url(#arrowCyan)">
    <path d="M510 281 H535"/>
    <path d="M665 281 H690"/>
  </g>
</svg>
