<svg xmlns="http://www.w3.org/2000/svg" width="1200" height="420" viewBox="0 0 1200 420" role="img" aria-labelledby="title desc">
  <title id="title">KORA validation roadmap</title>
  <desc id="desc">A roadmap from current alpha evidence to real model-call validation and workload-specific tests.</desc>
  <rect width="1200" height="420" fill="#f8fafc"/>
  <text x="56" y="58" fill="#0f172a" font-family="Inter, Arial, sans-serif" font-size="30" font-weight="700">KORA Validation Roadmap</text>
  <text x="56" y="90" fill="#475569" font-family="Inter, Arial, sans-serif" font-size="17">Current alpha evidence moves toward real model-call and workload-specific validation.</text>
  <g fill="none" stroke="#0891b2" stroke-width="4" stroke-linecap="round">
    <path d="M170 222 H1000"/>
    <path d="M980 210 L1000 222 L980 234"/>
  </g>
  <g font-family="Inter, Arial, sans-serif" text-anchor="middle">
    <g fill="#ffffff" stroke="#0891b2" stroke-width="2">
      <rect x="70" y="150" width="180" height="144" rx="8"/>
      <rect x="290" y="150" width="180" height="144" rx="8"/>
      <rect x="510" y="150" width="180" height="144" rx="8"/>
      <rect x="730" y="150" width="180" height="144" rx="8"/>
      <rect x="950" y="150" width="180" height="144" rx="8"/>
    </g>
    <text x="160" y="196" fill="#0f172a" font-size="17" font-weight="700">Current alpha</text>
    <text x="160" y="226" fill="#475569" font-size="14">deterministic-heavy</text>
    <text x="160" y="248" fill="#475569" font-size="14">benchmark</text>
    <text x="380" y="190" fill="#0f172a" font-size="17" font-weight="700">Real model-call</text>
    <text x="380" y="220" fill="#475569" font-size="14">runtime-integrated</text>
    <text x="380" y="242" fill="#475569" font-size="14">paths</text>
    <text x="600" y="196" fill="#0f172a" font-size="17" font-weight="700">Support triage</text>
    <text x="600" y="226" fill="#475569" font-size="14">repetitive support</text>
    <text x="600" y="248" fill="#475569" font-size="14">routing</text>
    <text x="820" y="196" fill="#0f172a" font-size="17" font-weight="700">RAG routing</text>
    <text x="820" y="226" fill="#475569" font-size="14">answer and refusal</text>
    <text x="820" y="248" fill="#475569" font-size="14">paths</text>
    <text x="1040" y="190" fill="#0f172a" font-size="17" font-weight="700">Agent budget</text>
    <text x="1040" y="220" fill="#475569" font-size="14">guardrails and</text>
    <text x="1040" y="242" fill="#475569" font-size="14">escalation</text>
  </g>
  <text x="56" y="360" fill="#0f172a" font-family="Inter, Arial, sans-serif" font-size="20" font-weight="700">Measure: requests, model calls, avoided calls, latency, tokens, cost where applicable, fallbacks, errors, validation.</text>
</svg>
