<svg xmlns="http://www.w3.org/2000/svg" width="1200" height="420" viewBox="0 0 1200 420" role="img" aria-labelledby="title desc">
  <title id="title">KORA help-test flow</title>
  <desc id="desc">A flow showing how developers can bring a workload, map deterministic paths, define escalation rules, run KORA, inspect telemetry, and share results.</desc>
  <rect width="1200" height="420" fill="#f8fafc"/>
  <text x="56" y="58" fill="#0f172a" font-family="Inter, Arial, sans-serif" font-size="30" font-weight="700">Help Test KORA</text>
  <text x="56" y="90" fill="#475569" font-family="Inter, Arial, sans-serif" font-size="17">Bring a sanitized workload and measure the execution path.</text>
  <g fill="none" stroke="#0891b2" stroke-width="3" stroke-linecap="round">
    <path d="M165 230 H1010"/>
    <path d="M990 218 L1010 230 L990 242"/>
  </g>
  <g font-family="Inter, Arial, sans-serif" text-anchor="middle">
    <g fill="#ffffff" stroke="#0891b2" stroke-width="2">
      <rect x="50" y="160" width="150" height="140" rx="8"/>
      <rect x="240" y="160" width="150" height="140" rx="8"/>
      <rect x="430" y="160" width="150" height="140" rx="8"/>
      <rect x="620" y="160" width="150" height="140" rx="8"/>
      <rect x="810" y="160" width="150" height="140" rx="8"/>
      <rect x="1000" y="160" width="150" height="140" rx="8"/>
    </g>
    <text x="125" y="214" fill="#0f172a" font-size="16" font-weight="700">Bring</text>
    <text x="125" y="238" fill="#475569" font-size="14">workload</text>
    <text x="315" y="208" fill="#0f172a" font-size="16" font-weight="700">Map</text>
    <text x="315" y="232" fill="#475569" font-size="14">deterministic</text>
    <text x="315" y="252" fill="#475569" font-size="14">paths</text>
    <text x="505" y="208" fill="#0f172a" font-size="16" font-weight="700">Define</text>
    <text x="505" y="232" fill="#475569" font-size="14">escalation</text>
    <text x="505" y="252" fill="#475569" font-size="14">rules</text>
    <text x="695" y="214" fill="#0f172a" font-size="16" font-weight="700">Run KORA</text>
    <text x="695" y="238" fill="#475569" font-size="14">locally</text>
    <text x="885" y="208" fill="#0f172a" font-size="16" font-weight="700">Inspect</text>
    <text x="885" y="232" fill="#475569" font-size="14">telemetry</text>
    <text x="885" y="252" fill="#475569" font-size="14">counters</text>
    <text x="1075" y="214" fill="#0f172a" font-size="16" font-weight="700">Share</text>
    <text x="1075" y="238" fill="#475569" font-size="14">results</text>
  </g>
  <text x="56" y="360" fill="#0f172a" font-family="Inter, Arial, sans-serif" font-size="20" font-weight="700">Do not share secrets, API keys, private user data, or proprietary datasets in public channels.</text>
</svg>
